<svg width="152" height="60" viewBox="0 0 152 60" xmlns="http://www.w3.org/2000/svg">
    <g fill="none" fill-rule="evenodd">
        <path d="M71.283 8.206c6.606 2.412 14.044 10.55 22.313 24.413 10.334-10.053 20.612-14.63 30.832-13.732 10.22.898 17.853 6.808 22.896 17.73-5.527-6.928-13.159-11.06-22.896-12.395-9.737-1.335-20.166 4.565-31.288 17.7C83.541 25.376 75.5 15.598 69.02 12.59c-6.481-3.007-12.382-3.281-17.703-.822 6.704-4.788 13.36-5.975 19.966-3.562z" fill="#D8D8D8"/>
        <g fill-rule="nonzero">
            <path d="M27.412 3.997c-12.22 0-22.123 9.909-22.123 22.132 0 1.708.212 3.362.577 4.958C8.119 40.92 16.9 48.26 27.412 48.26c8.255 0 15.443-4.533 19.244-11.24a22.008 22.008 0 0 0 2.879-10.892c0-12.223-9.905-22.132-22.123-22.132zM13.877 26.129c0-7.478 6.06-13.54 13.535-13.54 7.475 0 13.533 6.062 13.533 13.54 0 7.478-6.058 13.54-13.533 13.54s-13.535-6.062-13.535-13.54z" fill="#353535"/>
            <path d="M40.945 26.129c0-7.478-6.058-13.54-13.533-13.54s-13.535 6.062-13.535 13.54c0 7.478 6.06 13.54 13.535 13.54 7.475 0 13.533-6.062 13.533-13.54zm-4.83 8.708c-.525.524-1.942 1.648-2.642 1.27-.7-.376-.806-.807-1.184-1.614-.375-.806-1.384-2.892-1.707-3.645-.322-.754-.343-1.164.02-1.527.363-.363.774-.343 1.527-.02.753.323 2.836 1.331 3.643 1.709.808.376 1.237.484 1.614 1.183.376.7-.746 2.119-1.271 2.644zm-8.703-5.407a3.3 3.3 0 0 1 0-6.602 3.3 3.3 0 0 1 3.298 3.3 3.3 3.3 0 0 1-3.298 3.302zm11.338-6.07c.761.23.97 2.027.97 2.769s-.209 2.54-.97 2.768c-.76.229-1.14 0-1.977-.304-.837-.304-3.023-1.066-3.784-1.37-.76-.304-1.065-.58-1.065-1.094 0-.513.304-.789 1.065-1.094.761-.305 2.947-1.066 3.784-1.37.836-.304 1.218-.533 1.977-.304zm-8.168-1.95c.323-.753 1.332-2.839 1.707-3.646.378-.807.485-1.237 1.184-1.614.7-.377 2.117.747 2.642 1.272.525.524 1.647 1.943 1.271 2.643-.377.699-.806.807-1.614 1.183-.807.377-2.89 1.385-3.643 1.71-.753.322-1.164.341-1.527-.022-.363-.363-.342-.773-.02-1.526zm-5.937-6.625c.228-.762 2.026-.97 2.767-.97.741 0 2.539.208 2.766.97.228.76 0 1.14-.304 1.98-.305.836-1.065 3.023-1.37 3.785-.304.76-.58 1.065-1.092 1.065-.514 0-.79-.304-1.094-1.065-.304-.762-1.065-2.949-1.369-3.786-.304-.838-.532-1.218-.304-1.98zm-5.937 2.637c.524-.525 1.943-1.649 2.641-1.272.7.377.807.807 1.184 1.614.376.807 1.385 2.893 1.707 3.646.323.753.344 1.163-.02 1.526-.362.363-.772.344-1.525.021-.753-.324-2.837-1.332-3.644-1.709-.807-.376-1.237-.483-1.615-1.183-.375-.7.748-2.12 1.272-2.643zm-2.635 11.475c-.761-.228-.97-2.026-.97-2.768s.209-2.54.97-2.768c.76-.229 1.14 0 1.977.304.836.306 3.023 1.065 3.784 1.37.76.305 1.065.58 1.065 1.094 0 .513-.304.79-1.065 1.094-.761.304-2.948 1.066-3.784 1.37-.837.304-1.217.533-1.977.304zm2.635 5.94c-.524-.525-1.647-1.944-1.27-2.644.376-.699.806-.807 1.613-1.183.807-.378 2.89-1.386 3.644-1.71.753-.322 1.163-.342 1.526.021.363.363.343.773.02 1.527-.323.753-1.332 2.839-1.708 3.645-.376.807-.484 1.238-1.184 1.614-.698.378-2.117-.746-2.641-1.27zm8.704 3.606c-.741 0-2.539-.209-2.767-.97-.228-.761 0-1.141.304-1.978.304-.838 1.065-3.025 1.37-3.787.303-.76.579-1.065 1.093-1.065.513 0 .788.305 1.092 1.065.305.762 1.065 2.949 1.37 3.787.304.837.532 1.217.304 1.978-.227.761-2.025.97-2.766.97z" fill="#DBDBDB"/>
            <path d="M26.318 20.55c.304.76.58 1.065 1.094 1.065.513 0 .788-.304 1.092-1.065.305-.762 1.065-2.949 1.37-3.786.304-.838.532-1.218.304-1.98-.227-.76-2.025-.97-2.766-.97-.741 0-2.539.21-2.767.97-.228.762 0 1.142.304 1.98.304.837 1.065 3.024 1.37 3.786zM29.874 35.495c-.305-.838-1.065-3.025-1.37-3.787-.304-.76-.58-1.065-1.092-1.065-.514 0-.79.305-1.094 1.065-.304.762-1.065 2.949-1.369 3.787-.304.837-.532 1.217-.304 1.978.228.761 2.026.97 2.767.97.741 0 2.539-.209 2.766-.97.228-.761 0-1.141-.304-1.978zM19.05 21.248c.808.377 2.892 1.385 3.645 1.71.753.322 1.163.341 1.526-.022.363-.363.342-.773.02-1.526-.323-.753-1.332-2.839-1.708-3.646-.377-.807-.484-1.237-1.184-1.614-.698-.377-2.117.747-2.641 1.272-.524.524-1.647 1.943-1.272 2.643.378.7.808.807 1.615 1.183zM35.772 31.01c-.807-.378-2.89-1.386-3.643-1.71-.753-.322-1.164-.342-1.527.021-.363.363-.342.773-.02 1.527.323.753 1.332 2.839 1.707 3.645.378.807.485 1.238 1.184 1.614.7.378 2.117-.746 2.642-1.27.525-.525 1.647-1.944 1.271-2.644-.377-.699-.806-.807-1.614-1.183zM21.834 27.223c.76-.304 1.065-.58 1.065-1.094 0-.513-.304-.789-1.065-1.094-.761-.305-2.948-1.064-3.784-1.37-.837-.304-1.217-.533-1.977-.304-.761.228-.97 2.026-.97 2.768s.209 2.54.97 2.768c.76.229 1.14 0 1.977-.304.836-.304 3.023-1.066 3.784-1.37zM32.989 25.035c-.76.305-1.065.58-1.065 1.094 0 .513.304.79 1.065 1.094.761.304 2.947 1.066 3.784 1.37.836.304 1.218.533 1.977.304.761-.228.97-2.026.97-2.768s-.209-2.54-.97-2.768c-.76-.229-1.14 0-1.977.304-.837.304-3.023 1.065-3.784 1.37zM21.35 36.107c.699-.376.807-.807 1.183-1.614.376-.806 1.385-2.892 1.707-3.645.324-.754.344-1.164-.02-1.527-.362-.363-.772-.343-1.525-.02-.753.323-2.837 1.331-3.644 1.709-.807.376-1.237.484-1.613 1.183-.377.7.746 2.119 1.27 2.644.524.524 1.943 1.648 2.641 1.27zM32.129 22.957c.753-.324 2.836-1.332 3.643-1.709.808-.376 1.237-.484 1.614-1.183.376-.7-.746-2.12-1.271-2.643-.525-.525-1.942-1.649-2.642-1.272s-.806.807-1.184 1.614c-.375.807-1.384 2.893-1.707 3.646-.322.753-.343 1.163.02 1.526.363.363.774.344 1.527.021z" fill="#4C303D"/>
            <path d="M27.412 29.43a3.3 3.3 0 0 0 3.298-3.301 3.3 3.3 0 1 0-6.598 0 3.3 3.3 0 0 0 3.3 3.3z" fill="#DBD6D8"/>
        </g>
        <path d="M6.546 6.113c2.447-2.814 6.592-4.223 12.437-4.228-4.458.881-7.986 2.842-10.586 5.881-2.6 3.04-4.295 6.15-5.086 9.334-.29-4.511.79-8.174 3.235-10.987zM51.73 40.801c-1.807 3.26-5.527 5.479-11.16 6.657 4.024-2.043 6.991-4.82 8.902-8.333 1.91-3.512 3.042-6.773 3.395-9.781 1.05 4.379.67 8.198-1.137 11.457zM12.35.491C9.238.92 6.884 1.982 5.29 3.68 3.693 5.375 2.302 7.358 1.114 9.626c.198-3.08 1.1-5.423 2.705-7.027C5.571.85 8.414.147 12.35.491zM54.784 43.59c-.826 1.349-2.68 2.383-5.564 3.101 1.736-1.167 3.152-2.54 4.247-4.117a10.012 10.012 0 0 0 1.81-5.209c.497 2.8.333 4.875-.493 6.225z" fill="#DBDBDB" fill-rule="nonzero"/>
        <ellipse fill="#D8D8D8" cx="30.215" cy="56.734" rx="22.123" ry="3.266"/>
        <ellipse fill="#D8D8D8" cx="93.596" cy="47.404" rx="7.008" ry="1.4"/>
        <ellipse fill="#D8D8D8" cx="148.262" cy="39.473" rx="3.738" ry="1"/>
    </g>
</svg>
