<?xml version="1.0" encoding="UTF-8"?>
<svg width="100px" height="100px" viewBox="0 0 100 100" version="1.1" xmlns="http://www.w3.org/2000/svg" xmlns:xlink="http://www.w3.org/1999/xlink">
    <title>Placeholder Rewards Icon</title>
    <g id="Energy" stroke="none" stroke-width="1" fill="none" fill-rule="evenodd">
        <g id="Placeholder-Rewards-Icon">
            <rect id="Rectangle" fill="#DBDBDB" x="0" y="0" width="100" height="100"></rect>
            <g id="ticket-star" transform="translate(19.982580, 25.999533)">
                <path d="M60.0174203,16.0466057 L60.0174203,32.7826984 C60.0174203,45.0797392 57.3890933,48.000467 45.083636,48.000467 L23.731448,48.000467 L23.731448,39.7710167 C23.731448,38.631291 22.7710221,37.6715219 21.6305163,37.6715219 L21.6305163,11.1577821 C22.7710221,11.1577821 23.731448,10.1980131 23.731448,9.05828734 L23.731448,0.000466991264 L43.9602992,0.000466991264 C56.2657565,0.000466991264 60.0174203,3.74956482 60.0174203,16.0466057 Z" id="Path" fill="#FFFFFF" fill-rule="nonzero"></path>
                <path d="M21.6295259,11.1577821 L21.6295259,37.6715219 C20.4890201,37.6715219 19.5285941,38.631291 19.5285941,39.7710167 L19.5285941,48.00047 L13.0725299,48.00047 C-0.948008085,48.00047 0,48.00047 0.0199423727,37.6715219 C0.0199423727,37.2997676 0.0199423727,35.4502127 0.0199423727,32.1228571 C1.64597481,32.1228571 2.63907089,32.1228571 2.99923062,32.1228571 C7.20109408,32.1228571 9.20261712,27.9494946 9.20261712,24.000467 C9.20261712,20.0514394 7.20109408,16.7364397 2.99923062,16.7364397 C2.59905315,16.7364397 1.60595706,16.7364397 0.0199423727,16.7364397 C0.0199423727,13.3800095 0.0199423727,11.520457 0.0199423727,11.1577821 C0.0199423727,0 -0.948008085,0 13.0725299,0 L19.5285941,0 L19.5285941,9.05828734 C19.5285941,10.2280059 20.4890201,11.1577821 21.6295259,11.1577821 Z" id="Path" fill="#949494" fill-rule="nonzero"></path>
                <g id="Ampol" transform="translate(30.017420, 14.996858)">
                    <rect id="Rectangle" x="0" y="0" width="18" height="17.9956696"></rect>
                    <rect id="Rectangle" fill="#949494" fill-rule="nonzero" x="14.6782571" y="0.749819566" width="3.32174293" height="16.1711895"></rect>
                    <polygon id="Path" fill="#949494" fill-rule="nonzero" points="4.00893652 16.9219564 14.6783946 0.749819566 10.669458 0.749819566 0 16.9219564"></polygon>
                </g>
            </g>
        </g>
    </g>
</svg>