<?xml version="1.0" encoding="UTF-8"?>
<svg width="343px" height="131px" viewBox="0 0 343 131" version="1.1" xmlns="http://www.w3.org/2000/svg" xmlns:xlink="http://www.w3.org/1999/xlink">
    <title>shopoffer_test3@3x</title>
    <g id="Energy" stroke="none" stroke-width="1" fill="none" fill-rule="evenodd">
        <g id="shopoffer_test3@3x">
            <rect id="Mask" fill="#DBDBDB" x="0" y="0" width="343" height="131" rx="6"></rect>
            <g id="ticket-star" transform="translate(142.000000, 41.999533)">
                <path d="M60,16.0466057 L60,32.7826984 C60,45.0797392 57.3724359,48.000467 45.0705503,48.000467 L23.7245599,48.000467 L23.7245599,39.7710167 C23.7245599,38.631291 22.7644127,37.6715219 21.624238,37.6715219 L21.624238,11.1577821 C22.7644127,11.1577821 23.7245599,10.1980131 23.7245599,9.05828734 L23.7245599,0.000466991264 L43.9475395,0.000466991264 C56.2494251,0.000466991264 60,3.74956482 60,16.0466057 Z" id="Path" fill="#FFFFFF" fill-rule="nonzero"></path>
                <path d="M21.6232478,11.1577821 L21.6232478,37.6715219 C20.4830731,37.6715219 19.5229258,38.631291 19.5229258,39.7710167 L19.5229258,48.00047 L13.0687355,48.00047 C-0.947732922,48.00047 0,48.00047 0.0199365843,37.6715219 C0.0199365843,37.2997676 0.0199365843,35.4502127 0.0199365843,32.1228571 C1.64549706,32.1228571 2.63830489,32.1228571 2.99836008,32.1228571 C7.19900393,32.1228571 9.19994602,27.9494946 9.19994602,24.000467 C9.19994602,20.0514394 7.19900393,16.7364397 2.99836008,16.7364397 C2.59829876,16.7364397 1.60549092,16.7364397 0.0199365843,16.7364397 C0.0199365843,13.3800095 0.0199365843,11.520457 0.0199365843,11.1577821 C0.0199365843,0 -0.947732922,0 13.0687355,0 L19.5229258,0 L19.5229258,9.05828734 C19.5229258,10.2280059 20.4830731,11.1577821 21.6232478,11.1577821 Z" id="Path" fill="#949494" fill-rule="nonzero"></path>
                <g id="Ampol" transform="translate(30.008707, 14.996858)">
                    <rect id="Rectangle" x="0" y="0" width="17.9947754" height="17.9956696"></rect>
                    <rect id="Rectangle" fill="#949494" fill-rule="nonzero" x="14.6739967" y="0.749819566" width="3.32077878" height="16.1711895"></rect>
                    <polygon id="Path" fill="#949494" fill-rule="nonzero" points="4.00777291 16.9219564 14.6741341 0.749819566 10.6663611 0.749819566 0 16.9219564"></polygon>
                </g>
            </g>
        </g>
    </g>
</svg>